<?xml version="1.0" encoding="utf-8"?>
<!-- Generated by IcoMoon.io -->
<!DOCTYPE svg PUBLIC "-//W3C//DTD SVG 1.1//EN" "http://www.w3.org/Graphics/SVG/1.1/DTD/svg11.dtd">
<svg version="1.1" xmlns="http://www.w3.org/2000/svg" xmlns:xlink="http://www.w3.org/1999/xlink" width="1325" height="1024" viewBox="0 0 1325 1024">
<g id="icomoon-ignore">
</g>
<path d="M464.903 596.458l-1.83 24.223-5.595 12.497-10.68 6.522-10.536-1.216-11.333 1.216-11.883 4.745-6.261 17.229 1.268 16.536-0.589 23.15-7.529 11.818-13.7 5.895-63.804-0.535-12.484-5.359-7.503-10.64 1.882-24.954-1.882-22.523-6.261-9.425-10.653-5.935-53.111-1.216-12.522 1.779h-62.484l-13.163-1.779-12.497 1.216-14.393-6.522-5.62-10.053 3.137-28.431 6.889-17.805 7.516-10.066 35.007-62.248 8.105-10.667 35.661-61.634 7.491-10.066 4.993-10.693 8.118-9.504 3.765-11.843 14.418-18.34 17.438-32.627 13.752-19.581 11.281-10.091 21.869-5.294 41.961-1.779 12.445 1.216 16.275-1.804 19.961 8.301 4.968 11.843-1.176 12.484v22.484l3.11 11.87-2.471 23.661 1.216 12.484-1.216 94.21 1.216 10.705v24.3l4.968 11.843 11.895 7.124h12.497l9.425-0.562 11.83 7.059 6.223 17.216 0.599 19.566zM421.19 599.411l-1.242-6.522-13.7-3.034-18.772-0.535-20.641-4.784-5.53-11.818-0.679-23.672 1.242-11.281-1.242-12.445 1.242-101.987-1.909-10.64 2.523-18.34-1.176-12.511v-10.693l-1.347-12.405-5.020-11.19-13.084-6.549-11.895-0.627-15.045 5.908-10.588 11.256-6.929 9.529-5.647 11.256-8.053 10.667-24.392 40.863-7.529 10.078-18.079 33.83-6.875 9.45-3.791 8.942-27.504 43.215-5.020 10.039-19.399 31.478-5.568 13.647 3.151 10.68 13.059 2.287h37.555l11.229-1.138 98.209 1.138 13.111 6.013 6.236 9.425v35.582l-1.856 10.653 5.543 11.87 6.981-0.589 1.869-11.281 2.406-22.496-1.725-10.719-0.679-12.457 6.209-11.791 14.458-4.21h19.294l20.6-4.093zM347.451 394.862l-1.216 29.085 2.496 42.705-2.496 11.215 1.856 59.268 1.228 11.256-1.226 25.516-6.85 11.256-13.804 4.693-23.699-0.535-15.020 0.535-12.576-0.535-77.478 1.216-8.784-6.484-1.869-9.529 8.105-10.653 5.020-10.131 13.739-20.144 3.751-10.039 13.163-20.758 3.738-10.104 20.013-30.772 4.993-10.68 6.288-8.955 18.104-32.51 8.143-10.104 6.236-9.504 4.431-9.504 8.105-11.281 10.588-10.039 18.131 0.614 6.288 12.994 2.471 11.281-1.867 10.627zM315.556 439.935l-4.379-2.955-56.876 100.156-1.869 10.719 17.465 4.104h20.013l11.922-4.104 6.875-12.484-3.137-10.053 4.379-30.235-1.242-17.778 1.242-13.019 4.379-11.281 1.228-13.071z"></path>
<path d="M846.418 423.334l-1.934 189.085-5.582 21.961-13.138 21.922-21.281 27.241-8.732 8.901-34.379 17.805-23.137 8.287-29.386 5.935-23.778 1.725-20.627-1.163-25.53-4.156-33.896-10.066-12.497-6.497-8.732-6.51-11.202-5.962-10.091-8.301-8.092-8.901-15.583-18.34-4.431-10.104-6.182-10.64-6.313-22.496-0.589-71.725-1.856-11.922 1.856-11.843-2.496-11.843 3.085-34.993-2.445-12.967 0.549-34.993 15.086-45.647 4.902-10.667 5.634-9.477 9.398-8.301 8.195-8.863 18.732-15.464 11.87-5.908 10.012-6.497 11.242-4.145 49.987-10.091 49.425 1.765 23.751 4.759 13.163 4.131 10.536 4.759 33.203 17.83 9.935 8.249 5.674 8.863 9.373 9.477 11.256 18.392 4.354 11.843 5.674 11.229 5.018 24.323zM801.988 527.634l-1.242-10.066 0.654-59.241-2.471-17.242-0.706-17.751-6.275-22.496-6.182-11.843-13.791-18.353-20.013-14.85-12.511-6.576-12.497-4.693-23.751-5.321-20.040-0.654-18.104 1.268-13.673 2.314-23.83 7.7-12.484 5.399-10.615 5.935-9.412 8.863-14.287 18.967-10.719 22.523-4.354 30.235 1.882 40.262-1.268 11.281 0.601 22.471-1.216 13.111 2.419 34.992-0.535 17.177 1.242 18.367 10.039 34.967 6.85 9.45 9.347 9.504 9.974 7.687 20.013 12.511 38.171 10.64 39.386-1.19 36.862-9.45 11.948-5.987 20.575-14.798 7.556-8.301 12.419-21.32 5.046-12.484 4.991-83.008zM787.019 540.118l1.216 11.256-3.738 47.398-5.634 20.733-5.033 9.569-8.105 9.412-8.732 8.328-10.64 7.712-9.373 5.321-24.444 8.328-9.947 1.738-18.104 1.098h-20.040l-23.085-5.829-9.987-3.504-13.856-7.15-15.556-15.45-8.143-10.001-3.765-10.131-6.261-11.229-3.034-26.13-0.719-53.947-1.909-11.87 3.817-20.679v-11.87l-1.909-12.484-1.19-29.647 2.496-16.013 8.092-23.058 5.609-10.64 7.503-8.89 27.477-19.568 9.45-5.373 13.111-3.569 29.96-2.314 19.424 0.535 22.484 7.15 13.111 2.353 8.784 5.373 10.64 7.124 16.837 18.313 5.699 9.504 7.491 41.49v96.612zM736.98 598.235l3.11-18.419 0.589-17.751-1.804-10.104 0.576-11.843 1.882-11.843-2.458-10.705 2.458-46.836-2.458-28.444-3.189-17.216-4.3-10.628-6.929-9.45-10.536-7.111-11.948-4.118-38.117 0.589-20.719 10.64-8.053 8.301-6.261 11.242-3.072 17.216v138.066l4.928 18.419 4.406 11.843 7.543 9.425 8.758 5.399 13.059 4.17 18.72 1.765 20.040-2.418 11.281-4.17 9.385-5.87 9.32-9.542 3.791-10.606z"></path>
<path d="M1212.143 677.582l1.216 11.935-1.216 11.242-4.993 11.883-12.47 6.432-75.647-1.098-10.012 1.098-160.038-1.098-14.339 1.752-23.778-4.759-2.523-13.073 6.288-14.157 14.994-20.196 9.32-8.942 6.313-11.202 6.275-9.477 8.706-9.504 4.981-10.653 8.13-8.249 6.261-11.922 23.137-28.98 5.609-10.091 29.987-39.098 20.065-32.038 9.961-8.928 10.001-14.811 7.516-16.602 3.124-11.843 0.641-10.667-1.882-12.405-7.464-10.118-8.732-6.522-16.903-1.138-18.131 1.138-9.398 4.183-10.053 7.66-4.3 10.066-7.543 10.693-11.908 5.373-61.216-0.627-11.281-6.522-6.209-10.653 2.445-11.856 0.666-11.87 15.583-34.393 5.62-9.477 26.888-24.85 11.229-7.163 22.536-9.45 23.83-5.908 29.96-1.804 40.64 3.569 18.104 3.582 10.693 5.256 33.124 19.66 9.32 8.249 8.17 8.863 23.15 40.928 4.928 35.542v11.229l-4.928 23.124-11.256 22.588-3.83 12.432-36.195 48.568-5.634 8.89-9.385 10.078-30.026 37.962-6.875 11.229v9.529l14.955 3.582 78.823 0.497 21.255 4.824 4.941 12.967 0.693 23.713-1.911 11.828zM1145.307 678.85l17.542-4.81v-5.307l-20.654-4.145-119.438 0.589-9.333-4.81 1.216-10.012 8.784-10.091 48.705-71.084 8.784-9.504 36.941-49.764 29.947-53.947 1.804-11.229 1.347-11.895 2.418-13.046-3.072-22.51-4.431-10.653-23.045-28.471-10.693-6.497-24.367-9.529-11.818-2.314-50.079 1.19-11.87 4.156-21.151 10.628-9.477 7.124-6.902 8.236-6.823 10.693-1.32 10.091 8.143 1.83 9.425-10.066 6.954-10.156 10.509-8.301 11.843-5.281 23.751-8.301h16.955l31.856 4.131 21.255 10.053 9.425 7.7 9.373 10.693 4.3 9.529 6.313 21.295v23.739l-3.164 11.256-9.36 21.32-81.908 115.608-5.66 10.615-23.137 27.307-6.223 10.653-8.118 9.464-12.549 18.419-1.83 8.811 10.026 4.797 78.17 2.314 11.856-1.779 58.78 1.262z"></path>
</svg>
