<?xml version="1.0" encoding="utf-8"?>
<!-- Generator: Adobe Illustrator 16.0.0, SVG Export Plug-In . SVG Version: 6.00 Build 0)  -->
<!DOCTYPE svg PUBLIC "-//W3C//DTD SVG 1.1//EN" "http://www.w3.org/Graphics/SVG/1.1/DTD/svg11.dtd">
<svg version="1.1" id="Layer_1" xmlns="http://www.w3.org/2000/svg" xmlns:xlink="http://www.w3.org/1999/xlink" x="0px" y="0px"
	 width="792px" height="612px" viewBox="0 0 792 612" enable-background="new 0 0 792 612" xml:space="preserve">
<path fill="#FAFAFA" d="M733.969,191.055l-0.453-1.906l-2.594-5.719l-2.156-3.313l-10.547-20.461l-1.125-2.906l-9.438-17.445
	l-1.344-2.008h-1.594l-1.266,2.008l-1.797,3.813l-1.141,1.609l-0.781,2.297l-2.063,3.305l-0.766,2.031l-3.078,5.602l-0.797,2.008
	l-2.156,3.398l-0.797,1.82l-1.125,1.789l-0.672,2.109l-1.141,1.508l-1.031,1.719l-4.516,9.625l-1.047,1.492l-2.938,5.82
	l-0.344,1.617l1.484,0.383l4.203-6.922l1.922-1.695l2.828-0.695l4.313,0.188l2.047-0.305l2.391-0.094l12.688,0.508l12.469-0.609
	l2.266,0.313l2.5,1.008l2.031,1.594l2.625,4.711l1.594,1.688L733.969,191.055z M707.875,145.219L724.438,177l-0.109,2.023
	l-1.703,0.898h-27.313l-4.438-0.305l-2.266,0.102l-1.688-0.898l-0.453-1.703l8.938-17.266l1.047-1.391l7.578-14.859l1.594-1
	l1.578,0.813L707.875,145.219z"/>
<path fill="#FAFAFA" d="M733.969,191.055l6.031-1.156l-0.469-1.906l-0.109-0.453l-2.781-6.141l-0.156-0.367l-2.219-3.414
	l-10.313-19.992l-1.031-2.641l-0.125-0.313l-9.703-17.961l-1.484-2.203l-1.797-2.664h-5.094h-3.656l-3,4.82l-0.172,0.25l-1.734,3.68
	l-0.859,1.219l-0.453,0.625L694,144.891l-1.734,2.797L692,148.125l-0.828,2.164l-2.906,5.289l-0.141,0.273l-0.734,1.852
	l-1.906,2.992l-0.203,0.336l-0.813,1.844l-0.906,1.453l-0.344,0.555l-0.609,1.883l-0.594,0.789l-0.172,0.234l-1.203,1.969
	l-0.125,0.234l-4.438,9.445l-0.781,1.117l-0.219,0.313l-3.109,6.148l-0.297,0.602l-0.484,2.266l-0.984,4.836l6.813,1.773l4.813,1.25
	l6.125-10.109l0.125-0.117l0.313-0.086l3.313,0.148l0.672,0.023l2.328-0.336l1.75-0.07l12.391,0.492l0.328,0.016l12.141-0.594
	l0.766,0.102l0.906,0.367l0.422,0.344l2.094,3.734l0.328,0.594l2.047,2.18l1.625,1.727l3.875,0.336l8.406,0.703L740,189.898
	L733.969,191.055l0.578-5.438l-1.344-0.117l-0.578,5.438l4.734-3.492l-1.125-1.195l-2.297-4.117l-0.531-0.977l-2.953-2.305
	l-0.688-0.531l-3.313-1.344l-0.797-0.32l-3.094-0.43l-0.641-0.086l-12.813,0.625l-12.391-0.492l-0.266-0.016l-2.688,0.109
	l-0.375,0.016l-1.75,0.258l-3.625-0.156l-1-0.039l-3.797,0.93l-1.563,0.383l-3.063,2.695l-0.641,0.578l-4.641,7.641l5.438,2.578
	l1.734-5.242L679,185.625l-1.734,5.242l6.078,0.992l0.203-0.984l2.469-4.875l0.844-1.188l0.25-0.375l4.578-9.789l0.766-1.25
	l0.953-1.281l0.547-0.711l0.75-2.32l0.781-1.25l0.188-0.328l0.797-1.813l1.938-3.055l0.266-0.406l0.859-2.164l2.922-5.328
	l0.172-0.32l0.719-1.891l1.781-2.867l0.328-0.508l0.719-2.148l0.719-0.984l0.266-0.383l1.859-3.953l1.094-1.742l-5.391-2.648v5.461
	h1.594v-5.461L701,140.094l1.203,1.805l9.172,16.93l1.016,2.594l0.094,0.266l10.781,20.93l2.094,3.211l2.219,4.922l0.375,1.453
	L733.969,191.055l0.578-5.438L733.969,191.055z M707.875,145.219l-5.609,2.281l15.938,30.57l-0.047,0.68l6.172,0.273l-3.156-4.695
	l-0.25,0.133h-25.391l-4.188-0.289l-0.391-0.023l-0.781,0.031l-0.078-0.039l-3.172,4.68l6.016-1.242l-0.453-1.703l-6.016,1.242
	l5.609,2.273l8.75-16.875l0.766-1.039l0.281-0.367l7.094-13.906l0.234-0.141l-3.578-4.461l-3.094,4.727l1.578,0.805l3.094-4.719
	l-5.859,1.711l0.672,1.813l0.109,0.289l0.141,0.273L707.875,145.219l5.859-1.711l-0.672-1.805l-0.734-1.969l-3.594-1.852
	l-3.422-1.766l-4.844,3.023L699.109,140l-8.078,15.805l-0.766,1.023l-0.281,0.367l-10.016,19.344l0.938,3.531l0.594,2.242
	l3.922,2.094l1.609,0.852l3.766-0.172l4.047,0.281l0.219,0.008h29.25l3.172-1.656l2.844-1.5l0.281-4.945l0.063-1.336l-17.172-33
	L707.875,145.219l5.859-1.711L707.875,145.219z"/>
<polygon fill="#FAFAFA" points="651.5,189.344 649.125,188.938 646.734,189.25 644.125,189.148 641.984,188.063 640.859,185.141 
	640.953,169.797 640.734,167.805 640.734,165.984 640.953,163.164 640.953,149.633 640.734,147.727 640.859,143.516 
	640.734,141.906 640.953,139.805 641.734,137.797 644.031,136.805 646.297,136.586 648.328,136.805 650.594,136.094 
	650.359,134.883 648.438,134.602 644.031,134.602 641.531,134.188 633.016,134.383 628.594,134.984 628.359,136.094 
	630.625,136.703 635.063,136.703 637.344,137.883 638.234,139.703 638.594,142.008 638.344,143.914 638.344,149.727 
	638.125,151.852 638.469,153.641 638.234,163.781 638.594,166.977 638.125,175.82 638.469,179.836 638.125,183.945 638.469,186.031 
	637.344,187.938 634.719,188.852 627.469,189.344 627.219,190.359 629.5,191.148 631.781,190.953 646.969,191.25 649.344,190.836 
	651.391,190.359 "/>
<polygon fill="#FAFAFA" points="651.5,189.344 652.688,183.984 650.313,183.57 649.266,183.398 646.422,183.773 645.891,183.75 
	645.047,183.32 641.984,188.063 647.813,186.313 647.031,184.25 647.125,169.82 647.125,169.531 646.906,167.547 646.906,166.164 
	647.109,163.555 647.125,163.391 647.125,149.633 647.125,149.32 646.906,147.5 647.031,143.664 647.031,143.383 646.922,141.977 
	647.031,140.969 647.578,139.594 641.734,137.797 644.469,142.695 645.766,142.125 646.266,142.086 647.609,142.227 
	649.047,142.375 652.656,141.242 657.594,139.695 656.438,133.938 655.688,130.133 649.469,129.219 648.953,129.141 
	644.594,129.141 642.672,128.82 642.016,128.711 632.844,128.922 632.469,128.938 627.656,129.586 623.281,130.18 622.281,135.125 
	621.328,139.906 628.828,141.93 629.719,142.164 633.375,142.164 634.203,142.594 637.344,137.883 631.672,140.07 632.219,141.18 
	632.375,142.086 632.203,143.305 632.172,143.602 632.172,149.469 631.984,151.336 631.906,152.047 632.266,154.047 
	632.063,163.672 632.063,163.984 632.406,167.109 631.953,175.57 631.938,175.898 632.266,179.844 631.969,183.547 631.922,184.141 
	632.063,185.063 631.875,185.406 637.344,187.938 635.078,182.852 633.313,183.469 626.984,183.898 622.391,184.219 
	621.172,189.227 620.109,193.742 627.234,196.227 628.625,196.719 632.016,196.422 646.828,196.711 647.5,196.727 650.531,196.203 
	650.734,196.164 652.984,195.633 657.109,194.648 657.641,189.883 658.188,184.938 652.688,183.984 651.5,189.344 645.359,188.813 
	645.25,189.82 651.391,190.359 649.797,185.078 647.953,185.516 646.438,185.773 631.906,185.492 631.531,185.484 630.375,185.586 
	629.484,185.281 627.219,190.359 633.266,191.484 633.516,190.477 627.469,189.344 627.953,194.789 635.203,194.297 
	636.109,194.234 639.594,193.023 641.734,192.273 643.922,188.563 644.859,187 644.328,183.742 644.625,180.234 644.656,179.828 
	644.313,175.742 644.766,167.234 644.781,166.844 644.406,163.57 644.641,153.75 644.641,153.234 644.344,151.648 644.484,150.242 
	644.516,149.984 644.516,144.219 644.734,142.609 644.813,141.938 644.344,138.969 644.234,138.219 643,135.695 642.188,134.07 
	638.203,132 636.75,131.242 631.547,131.242 630.172,130.867 628.359,136.094 634.438,137.063 634.672,135.953 628.594,134.984 
	629.516,140.383 633.563,139.828 641.031,139.664 642.875,139.969 643.438,140.063 647.938,140.063 649.328,140.266 
	650.359,134.883 644.281,135.828 644.516,137.039 650.594,136.094 648.547,130.945 647.625,131.227 647.016,131.164 
	646.328,131.094 643.359,131.367 642.266,131.477 639.016,132.898 636.734,133.891 635.125,138.008 634.875,138.641 
	634.594,141.398 634.531,141.844 634.672,143.648 634.563,147.578 634.531,147.938 634.781,149.922 634.781,162.977 
	634.578,165.602 634.563,165.766 634.563,167.805 634.563,168.07 634.781,170.047 634.688,185.109 634.672,186.023 636.125,189.82 
	636.891,191.781 641.047,193.891 642.359,194.547 646.469,194.703 647.063,194.719 648.969,194.469 650.313,194.711 651.5,189.344 
	645.359,188.813 "/>
<polygon fill="#FAFAFA" points="644.703,109.898 646.047,108.203 645.5,107.211 643.563,108.008 642.313,109.516 641.875,110.609 
	640.172,113.125 640.391,113.922 641.531,113.922 642.313,113.523 643.563,112.234 644.031,111.023 "/>
<polygon fill="#FAFAFA" points="644.703,109.898 649.75,113.047 651.094,111.359 653.188,108.719 651.047,104.82 648.391,100 
	640.969,103.055 639.5,103.648 637.313,106.305 636.813,106.93 636.266,108.266 634.859,110.32 633.563,112.258 634.391,115.242 
	635.563,119.383 641.531,119.383 643.172,119.383 645.375,118.266 646.344,117.781 648.266,115.758 649.031,114.977 
	649.703,113.195 650.156,112.469 644.703,109.898 649.75,113.047 644.703,109.898 639.25,107.328 638.578,108.453 638.328,108.844 
	638.094,109.492 637.609,110 642.313,113.523 639.25,108.781 638.469,109.18 641.531,113.922 641.531,108.461 640.391,108.461 
	640.391,113.922 646.375,112.602 646.141,111.805 640.172,113.125 645.453,115.938 647.156,113.414 647.469,112.961 
	647.813,112.102 648.563,111.211 643.563,108.008 646.141,112.961 648.094,112.164 645.5,107.211 639.938,109.602 640.484,110.594 
	646.047,108.203 641,105.055 639.656,106.75 639.422,107.031 639.25,107.328 "/>
<path fill="#FAFAFA" d="M559.734,171.203l2.156-0.609l18.703-0.188l3.297,0.68l2.031,1.625l7.922,11.633l1.5,1.602l1.906,3.5
	l2.063,1.719l1.594,0.086l-0.688-1.906l-1.141-1.391l-3.391-5.008l-1.016-2.016l-6.031-8.93l-0.219-2.008l3.625-2.406l1.797-0.789
	l1.703-1.211l1.5-1.398l2.375-3.211l1.688-3.813l0.344-4.617l-0.219-2.914l-0.453-2.289l-0.797-1.727l-1.922-3.398l-1.703-1.719
	l-1.484-1.297l-1.906-1.305l-1.938-0.797l-1.922-0.898l-4.781-1.094l-3.281-0.313l-3.5,0.383L559.516,135l-2.281,0.992l-1,1.805
	l-0.125,24.672l-0.234,2.008l0.234,6.016l-0.234,2.117v14.133l0.234,2.203l0.453,1.727l1.125,0.094l0.797-4.93l0.109-12.844
	L559.734,171.203z M568.688,167.984l-6.906,0.102l-2.047-0.797l-1.031-3.016l-0.109-10.531l-0.234-2.109l0.344-11.531l0.813-2.203
	l2.266-0.992l2.375,0.313h9.063l2.156-0.313l2.266,0.313l3.203-0.117l3.719,0.297l2.156,0.695l2.281,0.617l2.141,0.906l1.828,1.094
	l3.281,3.016l1.125,1.695l1.578,4.125l0.125,2.813l-0.234,3.102l-1.469,4.211l-2.828,3.406l-1.375,1.398l-2.141,1.406l-1.922,0.914
	l-2.266,0.695l-5.797,0.594l-3.297-0.195l-2.141,0.297l-4.969,0.109L568.688,167.984z"/>
<path fill="#FAFAFA" d="M559.734,171.203l1.875,5.195l1.281-0.352l17.031-0.172l1.016,0.211l0.156,0.133l7.469,10.938l0.219,0.344
	l1.328,1.414l1.578,2.906l0.5,0.914l2.875,2.398l1.625,1.367l3.844,0.203l9.016,0.484l-3.453-9.516l-0.297-0.82l-1.578-1.914
	l-3.047-4.5l-0.859-1.719l-0.141-0.297l-5.531-8.18l-0.078-0.789l-6.141,0.539l3.688,4.375l3.188-2.117l1.313-0.57l0.578-0.266
	l2.219-1.57l0.344-0.234l1.766-1.656l0.391-0.359l2.688-3.625l0.344-0.484l1.922-4.328l0.344-0.789l0.406-5.469l0.031-0.367
	l-0.25-3.273l-0.016-0.297l-0.516-2.563l-0.125-0.563l-1.016-2.266l-0.109-0.188l-2.031-3.617l-0.359-0.617L601,136.906
	l-0.156-0.156l-1.625-1.43l-0.281-0.234l-2.203-1.508l-0.531-0.375l-2.453-1.008l-1.781-0.828l-0.625-0.289l-5.469-1.25
	l-0.438-0.109l-3.734-0.352L581,129.305l-3.813,0.406l-17.609-0.172l-1.484-0.016l-3.609,1.578l-1.859,0.82l-1.922,3.453
	l-0.641,1.133l-0.125,25.656l-0.203,1.734l-0.047,0.391l0.234,6.039l-0.188,1.734l-0.031,0.258v14.422v0.273l0.266,2.461
	l0.031,0.352l0.547,2.07l1,3.813l5.531,0.492l5.891,0.523l1.625-10.133l0.063-0.352l0.094-11.797l0.375-0.563L559.734,171.203
	l1.875,5.195L559.734,171.203l-5.391-2.68l-1.141,1.789l-0.766,1.227l-0.125,13.883l-0.734,4.586l6.109,0.758l0.609-5.43
	l-1.125-0.102l-0.609,5.438l6.016-1.234l-0.359-1.367l-0.172-1.586v-13.586l0.203-1.859l0.063-0.375l-0.25-6.008l0.188-1.609
	l0.047-0.281l0.094-23.672l0.375-0.68l-5.531-2.422l2.75,4.891l0.938-0.414l16.547,0.172l0.422,0.008l3.203-0.352l2.125,0.203
	l3.656,0.828l1.297,0.609l0.141,0.07l1.422,0.586l1.063,0.719l1.063,0.938l1.047,1.039l1.438,2.57l0.469,0.992l0.281,1.438
	l0.172,2.258l-0.25,3.422l-1.109,2.5l-1.719,2.313l-0.828,0.781l-0.859,0.609l-1.219,0.531l-0.484,0.219l-4.078,2.695l-2.797,1.844
	l0.578,5.078l0.125,1.211l6.547,9.688l0.859,1.719l0.156,0.297l3.594,5.305l0.141,0.227l0.719,0.867l0.375,1.07l5.891-1.672
	l0.375-5.453l-1.594-0.086l-0.375,5.453l4.25-3.969l-1.234-1.031l-1.422-2.594l-0.328-0.586l-1.672-1.797l-7.688-11.297
	l-0.469-0.688l-2.703-2.172l-1.188-0.945l-4.859-1l-0.719-0.148l-19.453,0.195h-0.938L557.859,166l-2.328,0.656l-1.188,1.867
	L559.734,171.203z M568.688,167.984l-0.094-5.461l-5.563,0.078l-0.813-0.313l-2.484,5l5.906-1.578l-0.781-2.258l-0.094-9.766v-0.227
	l-0.219-2.016l0.297-10.414l0.531-1.453l-5.859-1.68l2.734,4.891l0.531-0.234l0.469,0.063l0.453,0.063h9.516h0.5l1.672-0.242
	l1.297,0.172l0.594,0.078l3.406-0.117l2.516,0.203l1.422,0.453l0.141,0.055l2,0.531l1.297,0.555l0.891,0.539l2.344,2.156
	l0.422,0.648l1.094,2.836l0.078,1.758l-0.156,2.156l-0.953,2.711l-2.078,2.508l-0.766,0.773l-1.219,0.805l-1.094,0.516l-1.188,0.359
	l-4.531,0.469l-2.734-0.156l-0.688-0.047l-2.438,0.344l-3.953,0.086l-1.297-0.219l-0.609-0.086h-0.594L568.688,167.984l-1.109,5.375
	l1.953,0.313l0.625,0.102l5.625-0.125l0.391-0.016l1.859-0.258l2.609,0.156l0.563,0.039l6.344-0.656l0.672-0.07l2.906-0.898
	l0.453-0.133l2.359-1.109l0.406-0.195l2.516-1.656l0.547-0.352l1.797-1.844l0.172-0.172l2.984-3.586l0.609-0.734l1.781-5.086
	l0.203-0.625l0.281-3.742l0.016-0.289l-0.109-3.07l-0.031-0.813l-1.906-4.883l-0.188-0.516l-1.453-2.18l-0.375-0.563l-3.766-3.477
	l-0.453-0.406l-2.344-1.414l-0.391-0.234l-2.594-1.086l-0.406-0.18l-2.547-0.688l-2.031-0.648l-0.75-0.242l-4.5-0.359L581,131.633
	l-3,0.109l-1.672-0.234l-0.984-0.141l-2.641,0.391h-8.094l-1.938-0.258l-1.906-0.25l-4,1.758l-2.344,1.023l-1.578,4.391
	l-0.297,0.758l-0.359,12.313v0.336l0.234,2.211l0.109,10.289l0.016,0.781l1.266,3.758l0.828,2.406l4.641,1.813l1.234,0.484
	l8.266-0.125L568.688,167.984l-1.109,5.375L568.688,167.984z"/>
<polygon fill="#FAFAFA" points="521.844,191.25 527.844,191.25 530.109,190.453 530.109,189.25 525.547,188.852 522.969,188.945 
	520.563,188.75 518.203,189.047 513.547,188.852 511.391,189.047 506.875,188.75 503.469,189.047 500.063,187.742 498.813,184.836 
	499.047,170.594 498.813,167.492 499.047,165.484 500.172,163.781 502.203,162.781 506.641,162.68 508.672,162.883 515.703,162.969 
	517.75,162.68 523.188,162.969 526.688,162.367 526.813,161.18 524.672,160.469 521.938,160.664 519.797,160.664 517.625,160.266 
	515.594,160.367 513.094,160.164 510.016,160.563 504.484,160.266 502.094,160.469 499.813,159.359 499.047,157.352 
	498.688,155.461 498.922,153.641 498.922,139.602 499.813,137.797 503.219,136.891 511.172,136.891 513.313,136.602 
	526.922,136.602 529.328,136.391 529.094,135.086 525.547,134.602 515.469,134.797 510.938,134.383 508.672,134.602 
	506.516,134.383 504.125,134.602 499.719,134.5 497.453,135.594 496.313,137.617 496.438,186.945 497.453,189.758 499.719,191.07 
	506.75,190.938 509.016,191.164 511.516,191.164 513.547,190.867 "/>
<polygon fill="#FAFAFA" points="521.844,191.25 521.844,196.711 527.844,196.711 529.016,196.711 532.391,195.531 536.281,194.156 
	536.281,189.25 536.281,184.297 526.172,183.414 525.719,183.375 523.125,183.477 521.156,183.313 520.422,183.25 517.922,183.563 
	513.828,183.398 513.375,183.375 511.297,183.563 507.344,183.305 506.797,183.266 504.438,183.477 502.516,182.727 
	500.063,187.742 505.828,185.813 505,183.875 505.219,170.672 505.219,170.453 505,167.578 505.063,167.211 505.5,166.531 
	500.172,163.781 503.141,168.563 503.859,168.211 506.375,168.148 507.984,168.305 508.281,168.336 515.625,168.43 516.125,168.438 
	518.047,168.172 522.828,168.422 523.594,168.453 527.875,167.734 532.453,166.953 532.969,161.633 533.344,157.516 
	526.844,155.352 525.531,154.922 521.672,155.203 520.422,155.203 518.875,154.922 518.094,154.773 515.703,154.891 
	513.641,154.727 512.922,154.672 509.75,155.086 504.844,154.813 504.359,154.789 503.406,154.867 502.781,154.57 499.813,159.359 
	505.672,157.594 505.063,156.016 504.906,155.313 505.063,154.234 505.094,153.938 505.094,140.758 505.453,140 499.813,137.797 
	501.594,143.023 504.125,142.352 511.172,142.352 511.609,142.352 513.766,142.063 526.922,142.063 527.219,142.063 529.938,141.82 
	536.484,141.25 535.188,134.203 534.453,130.289 526.5,129.203 525.953,129.133 515.734,129.328 511.563,128.953 510.922,128.898 
	508.688,129.102 507.203,128.961 506.547,128.898 503.891,129.133 499.875,129.039 498.203,129 494.5,130.805 492.781,131.617 
	490.781,135.172 490.141,136.328 490.266,187.797 491.563,191.414 492.219,193.273 496.344,195.641 497.938,196.563 
	506.453,196.406 508.313,196.594 508.656,196.625 511.516,196.625 512.031,196.625 513.891,196.352 521.516,196.703 
	521.672,196.711 521.844,196.711 521.844,191.25 522.156,185.797 513.859,185.414 513.188,185.383 511,185.703 509.359,185.703 
	507.438,185.516 507.031,185.469 501.484,185.57 500.828,185.188 497.453,189.758 503.328,188.102 502.609,186.086 502.484,138.898 
	502.969,138.031 497.453,135.594 500.406,140.383 501.219,139.992 503.969,140.063 504.344,140.063 506.484,139.875 
	507.984,140.023 508.656,140.094 510.938,139.875 514.844,140.227 515.219,140.266 525.156,140.063 528.141,140.477 
	529.094,135.086 523,135.961 523.234,137.273 529.328,136.391 528.719,130.961 526.609,131.141 513.313,131.141 512.859,131.141 
	510.703,131.43 503.219,131.43 502.313,131.43 498.031,132.57 495.313,133.297 493.266,137.398 492.734,138.453 492.734,153.336 
	492.547,154.859 492.453,155.609 492.953,158.242 493.031,158.695 493.969,161.109 494.734,163.117 499.125,165.25 500.781,166.063 
	504.578,165.742 509.656,166.016 510.281,166.047 513.266,165.664 515.016,165.805 515.469,165.844 517.156,165.758 
	518.547,166.008 519.172,166.125 521.938,166.125 522.188,166.125 523.781,166.008 524.641,166.289 526.813,161.18 520.656,160.719 
	520.531,161.914 526.688,162.367 525.516,157.008 522.766,157.477 518.125,157.227 517.453,157.195 515.266,157.5 509.063,157.43 
	507.328,157.258 506.906,157.219 502.047,157.32 500.547,157.359 497.188,158.992 495.703,159.727 493.703,162.734 493.031,163.758 
	492.672,166.953 492.625,167.398 492.875,170.75 492.641,184.758 492.625,185.797 494.281,189.664 495.203,191.828 501,194.063 
	502.484,194.625 506.953,194.234 510.922,194.492 511.484,194.531 513.719,194.32 517.906,194.5 518.5,194.531 520.719,194.242 
	522.391,194.391 522.797,194.422 525.375,194.32 529.5,194.68 530.109,189.25 523.938,189.25 523.938,190.453 530.109,190.453 
	527.828,185.375 526.656,185.789 521.844,185.789 521.844,191.25 522.156,185.797 "/>
<polygon fill="#FAFAFA" points="470.531,177.219 468.953,177.43 465.531,180.93 464.078,182.125 462.484,183.828 456.719,187.141 
	454.547,187.656 452.391,188.336 446.484,188.945 443.766,188.75 440.25,189.063 438.109,188.75 429.828,185.945 427.656,184.836 
	422.453,181.227 419.844,178.328 416.453,172.805 415.875,170.789 415.672,168.984 414.641,165.383 414.75,156.852 415.766,153.039 
	417.703,149.328 418.375,147.539 419.734,146.117 422.453,142.602 424.047,141.414 425.969,140.398 427.797,139.109 429.703,138 
	431.875,137.398 433.906,136.602 436.063,135.992 441.5,135.297 447.406,135.094 449.688,135.695 451.953,135.992 456.141,137 
	458.297,137.797 462.031,139.82 463.625,141.211 466.453,144.328 468.5,146.016 469.953,146.016 469.516,144.328 468.391,142.719 
	466.688,140.914 463.516,138.297 459.75,136.305 457.844,135.797 453.75,133.984 451.828,133.391 448.547,133.391 443.766,132.977 
	435.938,133.688 433.797,134.602 431.875,135.18 429.594,135.594 427.797,136.703 423.938,138.609 418.047,144.227 416.672,146.016 
	413.969,151.234 413.25,153.242 412.938,155.25 412.375,157.055 412.031,164.977 413.406,171.203 414.984,175.414 416.234,176.914 
	417.375,178.82 421.438,183.531 426.219,186.547 431.313,189.063 440.141,191.25 443.547,190.953 447.406,191.164 456.359,189.445 
	461.453,187.039 464.188,185.234 468.828,180.93 470.203,179.125 "/>
<polygon fill="#FAFAFA" points="470.531,177.219 469.609,171.82 468.016,172.031 465.766,172.328 461.078,177.133 459.875,178.109 
	459.578,178.359 458.313,179.703 454.172,182.086 452.953,182.375 452.703,182.438 450.969,182.984 446.375,183.461 
	444.281,183.313 443.703,183.266 440.438,183.563 439.734,183.453 432.5,181.008 431.141,180.313 426.828,177.32 425.016,175.305 
	422.25,170.813 421.969,169.852 421.813,168.43 421.766,168.031 420.813,164.734 420.906,157.523 421.609,154.844 423.313,151.625 
	423.469,151.328 423.875,150.258 424.453,149.648 424.641,149.438 427.078,146.297 427.625,145.875 429.109,145.102 429.5,144.906 
	431.422,143.531 432.359,142.984 433.703,142.609 434.063,142.516 436.078,141.719 437.453,141.328 442.063,140.742 
	446.625,140.586 447.938,140.93 448.359,141.039 450.688,141.344 454.125,142.18 455.484,142.68 458.188,144.141 459.031,144.875 
	461.641,147.742 461.906,148.047 464.266,150 466.047,151.477 469.953,151.477 477.75,151.477 475.516,143.07 475.281,142.203 
	473.625,139.844 473.406,139.516 471.422,137.414 471.172,137.148 467.719,134.305 467.25,133.898 462.922,131.617 462.266,131.273 
	460.141,130.703 456.516,129.102 456.156,128.945 453.859,128.234 452.875,127.93 448.844,127.93 444.359,127.547 443.75,127.492 
	435.313,128.258 434.234,128.359 431.453,129.539 430.25,129.898 428.359,130.25 427.094,130.469 424.516,132.07 420.922,133.836 
	420.078,134.266 413.516,140.516 413.203,140.813 411.563,142.938 411.266,143.32 408.359,148.961 408.172,149.281 407.359,151.609 
	407.219,152.031 406.875,154.133 406.422,155.602 406.234,156.211 405.859,164.766 405.828,165.398 407.344,172.242 
	407.422,172.586 409.109,177.125 409.438,177.945 410.984,179.836 411.922,181.383 412.141,181.773 416.531,186.844 417.094,187.5 
	422.625,190.992 422.922,191.164 428.297,193.836 428.938,194.148 438.469,196.508 439.594,196.781 443.656,196.43 447.016,196.617 
	447.875,196.664 457.656,194.781 458.5,194.625 464.359,191.859 464.766,191.672 467.891,189.609 468.281,189.336 473.297,184.695 
	473.672,184.352 475.328,182.156 476.078,181.164 476.625,178.063 477.938,170.695 469.609,171.82 470.531,177.219 464.453,176.367 
	464.313,177.078 464,177.5 460.078,181.133 458.141,182.422 454.203,184.273 446.922,185.672 443.938,185.5 443.438,185.477 
	440.688,185.711 433.672,183.977 429.531,181.922 425.781,179.563 422.578,175.875 421.688,174.359 421.469,174 420.516,172.875 
	419.375,169.813 418.219,164.547 418.516,157.891 418.891,156.695 419,156.359 419.297,154.445 419.734,153.195 422.047,148.719 
	422.891,147.641 427.797,142.953 430.797,141.477 431.047,141.336 432.063,140.719 433.109,140.531 433.5,140.461 435.797,139.766 
	436.156,139.664 437.641,139.023 443.781,138.469 447.953,138.82 448.234,138.852 450.781,138.852 451.344,139.031 455.078,140.68 
	455.531,140.883 457.25,141.336 459.781,142.68 462.172,144.664 463.375,145.922 463.734,146.445 463.953,147.266 469.953,146.016 
	469.953,140.555 468.5,140.555 468.5,146.016 472.703,142.039 470.984,140.609 468.438,137.789 468.203,137.539 466.375,135.938 
	465.859,135.492 461.516,133.141 461.094,132.914 458.5,131.961 458.141,131.828 453.578,130.727 453.219,130.641 451.016,130.344 
	449.156,129.867 448.172,129.609 441.266,129.844 440.938,129.852 435.188,130.586 434.672,130.656 432.016,131.398 
	431.703,131.492 429.688,132.281 427.875,132.789 427.031,133.016 424.391,134.539 424.156,134.688 422.453,135.898 
	420.891,136.711 420.438,136.945 418.469,138.438 417.828,138.914 414.813,142.813 413.656,144.008 412.875,144.82 411.953,147.328 
	410.172,150.742 409.891,151.25 408.734,155.602 408.594,156.188 408.469,165.32 408.453,166.039 409.578,169.93 409.734,171.344 
	409.781,171.734 410.469,174.148 410.656,174.805 414.438,180.938 414.672,181.344 417.609,184.625 418.078,185.133 
	423.844,189.133 424.188,189.367 426.75,190.672 427.156,190.898 435.906,193.844 436.484,194.047 439.234,194.453 440.047,194.563 
	443.813,194.234 445.969,194.391 446.578,194.438 453.109,193.758 453.797,193.688 456.375,192.875 458.297,192.414 459.25,192.195 
	465.844,188.406 466.625,187.953 468.563,185.883 469.719,184.938 469.969,184.734 473.625,180.992 468.953,177.43 469.875,182.828 
	471.453,182.609 470.531,177.219 464.453,176.367 "/>
<path fill="#FAFAFA" d="M207.063,171.203l2.125-0.609l18.719-0.188l3.297,0.68l2.047,1.625l7.922,11.633l1.484,1.602l1.922,3.5
	l2.047,1.719l1.594,0.086l-0.703-1.906l-1.141-1.391L243,182.945l-1.031-2.016l-6.031-8.93l-0.203-2.008l3.625-2.406l1.813-0.789
	l1.703-1.211l1.484-1.398l2.375-3.211l1.688-3.813l0.359-4.617l-0.234-2.914l-0.469-2.289l-0.781-1.727l-1.938-3.398l-1.688-1.719
	l-1.484-1.297l-1.922-1.305l-1.922-0.797l-1.938-0.898l-4.75-1.094l-3.297-0.313l-3.5,0.383L206.828,135l-2.281,0.992l-1.016,1.805
	l-0.109,24.672l-0.219,2.008l0.219,6.016l-0.219,2.117v14.133l0.219,2.203l0.453,1.727l1.141,0.094l0.781-4.93l0.094-12.844
	L207.063,171.203z M216.016,167.984l-6.922,0.102l-2.031-0.797l-1.031-3.016l-0.141-10.531l-0.203-2.109l0.344-11.531l0.797-2.203
	l2.266-0.992l2.359,0.313h9.094l2.141-0.313l2.266,0.313l3.188-0.117l3.734,0.297l2.156,0.695l2.266,0.617l2.156,0.906l1.813,1.094
	l3.281,3.016l1.156,1.695l1.563,4.125l0.109,2.813l-0.203,3.102l-1.469,4.211l-2.844,3.406l-1.375,1.398l-2.141,1.406l-1.938,0.914
	l-2.266,0.695l-5.781,0.594l-3.297-0.195l-2.141,0.297l-4.984,0.109L216.016,167.984z"/>
<path fill="#FAFAFA" d="M207.063,171.203l1.891,5.195l1.25-0.352l17.031-0.172l1.016,0.211l0.188,0.141l7.438,10.93l0.234,0.336
	l1.297,1.422l1.625,2.93l0.484,0.875l2.844,2.398L244,196.5l3.844,0.203l9,0.484l-3.438-9.516l-0.313-0.82l-1.531-1.891
	l-3.078-4.539l-0.891-1.742l-0.156-0.297l-5.484-8.117l-0.078-0.781l-6.141,0.508l3.703,4.367l3.156-2.102l1.313-0.57l0.609-0.266
	l2.219-1.578l0.328-0.234l1.797-1.68l0.344-0.344l2.688-3.617l0.359-0.477l1.906-4.336l0.359-0.773l0.422-5.469l0.031-0.375
	l-0.266-3.281l-0.031-0.313l-0.516-2.57l-0.109-0.563l-1.031-2.242l-0.094-0.203l-2.047-3.602l-0.344-0.609l-2.188-2.234
	l-0.188-0.18l-1.656-1.438l-0.266-0.227l-2.188-1.5l-0.563-0.375l-2.422-1.008l-1.797-0.828l-0.625-0.289l-5.422-1.25l-0.453-0.109
	l-3.75-0.352l-0.703-0.063l-3.813,0.406l-17.609-0.172l-1.469-0.016l-3.609,1.57l-1.875,0.82L198,135.375l-0.641,1.133
	l-0.109,25.688l-0.188,1.742L197,164.305l0.234,6.016l-0.172,1.773l-0.047,0.242v14.406v0.266l0.266,2.43l0.031,0.367l0.547,2.094
	l1,3.82l5.547,0.484l5.891,0.516l1.609-10.125l0.063-0.359l0.078-11.773l0.359-0.547L207.063,171.203l1.891,5.195L207.063,171.203
	l-5.375-2.711l-1.156,1.789l-0.797,1.242l-0.109,13.914l-0.719,4.57l6.109,0.758l0.609-5.43l-1.141-0.102l-0.609,5.438l6.016-1.234
	l-0.359-1.344l-0.156-1.609v-13.602l0.188-1.883l0.031-0.344l-0.219-6.008l0.188-1.641l0.031-0.258l0.094-23.656l0.391-0.68
	l-5.531-2.422l2.734,4.898l0.953-0.422l16.531,0.172l0.422,0.008l3.219-0.352l2.141,0.203l3.625,0.828l1.313,0.609l0.141,0.07
	l1.406,0.586l1.078,0.734l1.047,0.906l1.047,1.055l1.453,2.57l0.469,1.008l0.281,1.445l0.172,2.234l-0.25,3.414l-1.109,2.508
	l-1.734,2.328l-0.828,0.773l-0.828,0.594l-1.219,0.531l-0.5,0.227l-4.094,2.703l-2.75,1.836l0.516,5.039l0.141,1.234l6.563,9.719
	l0.891,1.742l0.141,0.289l3.563,5.266l0.141,0.219l0.719,0.883l0.391,1.07l5.891-1.672l0.359-5.453l-1.594-0.086l-0.359,5.453
	l4.25-3.953l-1.234-1.039l-1.438-2.617l-0.313-0.563l-1.656-1.797l-7.703-11.305l-0.484-0.703l-2.734-2.164l-1.172-0.938l-4.828-1
	l-0.734-0.148l-19.453,0.195h-0.938L205.156,166l-2.281,0.656l-1.188,1.836L207.063,171.203z M216.016,167.984l-0.109-5.461
	l-5.563,0.078l-0.797-0.313l-2.484,5l5.906-1.578l-0.781-2.273l-0.109-9.758v-0.234l-0.219-1.992l0.313-10.422l0.531-1.453
	l-5.875-1.68l2.75,4.891l0.531-0.234l0.438,0.063L211,142.68h9.547h0.5l1.672-0.242l1.281,0.172l0.594,0.078l3.391-0.117
	l2.531,0.203l1.391,0.453l0.172,0.055l1.984,0.531l1.297,0.555l0.906,0.539l2.344,2.164l0.453,0.664l1.063,2.789l0.063,1.781
	l-0.141,2.172l-0.938,2.695l-2.094,2.508l-0.75,0.758l-1.234,0.82l-1.094,0.516l-1.188,0.359l-4.531,0.469l-2.734-0.156
	l-0.703-0.047l-2.422,0.344l-3.938,0.086l-1.297-0.211l-0.609-0.094h-0.609L216.016,167.984l-1.109,5.375l1.922,0.313l0.625,0.102
	l5.625-0.125l0.406-0.016l1.844-0.258l2.609,0.156l0.563,0.039l6.359-0.656l0.672-0.07l2.906-0.898l0.453-0.133l2.359-1.109
	l0.406-0.195l2.5-1.656l0.516-0.336l1.828-1.828l0.172-0.188l3-3.586l0.625-0.75l1.766-5.094l0.234-0.633l0.234-3.75l0.016-0.281
	l-0.109-3.055l-0.031-0.789l-1.844-4.875l-0.234-0.57l-1.5-2.219l-0.359-0.516l-3.75-3.461l-0.453-0.406l-2.344-1.414l-0.375-0.234
	l-2.594-1.086l-0.422-0.18L236,132.914l-2-0.641l-0.75-0.25l-4.563-0.359l-0.391-0.031l-3,0.109l-1.672-0.234l-0.969-0.141
	l-2.625,0.391h-8.125l-1.891-0.258l-1.938-0.25l-4,1.758l-2.328,1.023l-1.609,4.391l-0.25,0.75l-0.375,12.32l-0.016,0.313
	l0.219,2.219l0.141,10.313v0.773l1.281,3.758l0.813,2.406l4.656,1.813l1.234,0.484l8.266-0.125L216.016,167.984l-1.109,5.375
	L216.016,167.984z"/>
<polygon fill="#FAFAFA" points="169.141,191.25 175.156,191.25 177.406,190.453 177.406,189.25 172.875,188.852 170.266,188.945 
	167.891,188.75 165.516,189.047 160.844,188.852 158.703,189.047 154.172,188.75 150.766,189.047 147.359,187.742 146.125,184.836 
	146.344,170.594 146.125,167.492 146.344,165.484 147.469,163.781 149.516,162.781 153.953,162.68 156,162.883 163,162.969 
	165.063,162.68 170.5,162.969 174.016,162.367 174.109,161.18 171.969,160.469 169.234,160.664 167.109,160.664 164.938,160.266 
	162.891,160.367 160.406,160.164 157.344,160.563 151.781,160.266 149.406,160.469 147.125,159.359 146.344,157.352 146,155.461 
	146.234,153.641 146.234,139.602 147.125,137.797 150.531,136.891 158.484,136.891 160.641,136.602 174.219,136.602 
	176.625,136.391 176.391,135.086 172.875,134.602 162.813,134.797 158.266,134.383 156,134.602 153.828,134.383 151.422,134.602 
	147.031,134.5 144.75,135.594 143.609,137.617 143.75,186.945 144.75,189.758 147.031,191.07 154.063,190.938 156.313,191.164 
	158.828,191.164 160.844,190.867 "/>
<polygon fill="#FAFAFA" points="169.141,191.25 169.141,196.711 175.156,196.711 176.344,196.711 179.688,195.523 183.578,194.156 
	183.578,189.25 183.578,184.297 173.484,183.414 173.031,183.375 170.438,183.477 168.469,183.313 167.75,183.25 165.219,183.563 
	161.141,183.398 160.672,183.375 158.594,183.563 154.641,183.305 154.094,183.266 151.75,183.477 149.828,182.727 147.359,187.742 
	153.141,185.813 152.313,183.875 152.516,170.672 152.516,170.453 152.313,167.578 152.359,167.219 152.813,166.531 
	147.469,163.781 150.453,168.563 151.172,168.211 153.703,168.148 155.313,168.305 155.609,168.336 162.922,168.43 163.438,168.438 
	165.344,168.172 170.125,168.422 170.891,168.453 175.172,167.734 179.844,166.945 180.266,161.57 180.594,157.5 174.141,155.352 
	172.844,154.922 168.984,155.203 167.734,155.203 166.188,154.922 165.406,154.773 163,154.891 160.953,154.727 160.219,154.672 
	157.078,155.086 152.156,154.813 151.672,154.789 150.703,154.867 150.094,154.57 147.125,159.359 152.969,157.594 152.344,156 
	152.234,155.336 152.359,154.273 152.406,153.977 152.406,140.742 152.781,139.969 147.125,137.797 148.906,143.023 
	151.422,142.352 158.484,142.352 158.938,142.352 161.094,142.063 174.219,142.063 174.531,142.063 177.234,141.82 183.688,141.25 
	182.5,134.258 181.813,130.297 173.828,129.203 173.281,129.133 163.047,129.328 158.891,128.953 158.25,128.898 156.016,129.102 
	154.5,128.961 153.859,128.898 151.203,129.133 147.188,129.039 145.516,129 141.797,130.805 140.094,131.617 138.078,135.172 
	137.438,136.328 137.578,187.805 138.875,191.414 139.531,193.273 143.641,195.641 145.234,196.563 153.781,196.406 
	155.609,196.594 155.969,196.625 158.828,196.625 159.344,196.625 161.203,196.352 168.828,196.703 168.984,196.711 
	169.141,196.711 169.141,191.25 169.469,185.797 161.172,185.414 160.5,185.383 158.313,185.703 156.672,185.703 154.766,185.516 
	154.359,185.469 148.797,185.57 148.141,185.188 144.75,189.758 150.641,188.102 149.922,186.086 149.781,138.898 150.266,138.031 
	144.75,135.594 147.719,140.383 148.516,139.992 151.266,140.063 151.656,140.063 153.797,139.875 155.313,140.023 155.984,140.094 
	158.281,139.875 162.188,140.227 162.547,140.266 172.453,140.063 175.453,140.477 176.391,135.086 170.281,135.906 
	170.516,137.219 176.625,136.391 176,130.961 173.922,131.141 160.641,131.141 160.172,131.141 158.016,131.43 150.531,131.43 
	149.609,131.43 145.328,132.57 142.594,133.305 140.563,137.438 140.063,138.469 140.063,153.305 139.859,154.828 139.75,155.578 
	140.25,158.242 140.328,158.695 141.266,161.109 142.047,163.117 146.422,165.25 148.078,166.063 151.875,165.742 156.969,166.016 
	157.609,166.047 160.578,165.664 162.328,165.805 162.781,165.844 164.469,165.758 165.844,166.008 166.484,166.125 
	169.234,166.125 169.5,166.125 171.094,166.008 171.938,166.289 174.109,161.18 167.953,160.781 167.859,161.977 174.016,162.367 
	172.859,157.008 170.094,157.477 165.438,157.227 164.75,157.195 162.563,157.5 156.375,157.43 154.625,157.258 154.203,157.219 
	149.359,157.32 147.859,157.359 144.5,158.992 143,159.727 141.016,162.734 140.328,163.766 139.984,166.953 139.938,167.398 
	140.172,170.734 139.953,184.758 139.938,185.797 141.594,189.664 142.5,191.828 148.313,194.063 149.781,194.625 154.266,194.234 
	158.234,194.492 158.797,194.531 161.031,194.32 165.203,194.5 165.797,194.531 168.031,194.242 169.688,194.391 170.109,194.422 
	172.703,194.32 176.797,194.68 177.406,189.25 171.234,189.25 171.234,190.453 177.406,190.453 175.109,185.383 173.969,185.789 
	169.141,185.789 169.141,191.25 169.469,185.797 "/>
<polygon fill="#FAFAFA" points="117.844,177.219 116.25,177.43 112.859,180.93 111.391,182.125 109.813,183.828 104.016,187.141 
	101.859,187.656 99.703,188.336 93.797,188.945 91.078,188.75 87.563,189.063 85.438,188.75 77.156,185.945 75,184.836 
	69.766,181.227 67.172,178.328 63.766,172.805 63.188,170.789 62.969,168.984 61.969,165.383 62.063,156.852 63.063,153.039 
	65.016,149.328 65.688,147.539 67.063,146.117 69.766,142.602 71.344,141.414 73.297,140.398 75.109,139.109 77.031,138 
	79.203,137.398 81.219,136.602 83.375,135.992 88.828,135.297 94.719,135.094 97,135.695 99.266,135.992 103.438,137 
	105.609,137.797 109.344,139.82 110.938,141.211 113.781,144.328 115.797,146.016 117.281,146.016 116.828,144.328 115.688,142.719 
	113.984,140.914 110.828,138.297 107.078,136.305 105.141,135.797 101.063,133.984 99.125,133.391 95.844,133.391 91.078,132.977 
	83.266,133.688 81.109,134.602 79.203,135.18 76.906,135.594 75.109,136.703 71.234,138.609 65.359,144.227 63.984,146.016 
	61.266,151.234 60.594,153.242 60.234,155.25 59.688,157.055 59.344,164.977 60.703,171.203 62.281,175.414 63.531,176.914 
	64.672,178.82 68.75,183.531 73.516,186.547 78.609,189.063 87.453,191.25 90.844,190.953 94.719,191.164 103.688,189.445 
	108.781,187.039 111.516,185.234 116.156,180.93 117.484,179.125 "/>
<polygon fill="#FAFAFA" points="117.844,177.219 116.906,171.82 115.313,172.031 113.047,172.328 108.406,177.133 107.219,178.109 
	106.891,178.367 105.641,179.703 101.484,182.094 100.25,182.375 100.016,182.438 98.297,182.984 93.688,183.461 91.594,183.313 
	91.016,183.266 87.766,183.563 87.063,183.453 79.828,181.008 78.469,180.305 74.141,177.32 72.328,175.305 69.547,170.797 
	69.281,169.852 69.109,168.43 69.063,168.055 68.141,164.742 68.219,157.516 68.922,154.844 70.609,151.625 70.75,151.352 
	71.172,150.266 71.75,149.648 71.984,149.422 74.391,146.289 74.938,145.883 76.422,145.109 76.797,144.906 78.75,143.531 
	79.672,142.984 81.031,142.609 81.359,142.516 83.422,141.719 84.781,141.328 89.391,140.742 93.938,140.586 95.219,140.93 
	95.641,141.039 97.984,141.344 101.438,142.18 102.797,142.68 105.5,144.141 106.344,144.883 108.969,147.758 109.25,148.047 
	111.563,149.984 113.344,151.477 117.281,151.477 125.078,151.477 122.844,143.07 122.609,142.188 120.922,139.813 120.688,139.5 
	118.734,137.414 118.484,137.156 115.063,134.313 114.563,133.906 110.234,131.617 109.578,131.273 107.422,130.695 
	103.828,129.102 103.453,128.945 101.172,128.234 100.172,127.93 96.156,127.93 91.672,127.547 91.063,127.492 82.641,128.258 
	81.563,128.359 78.766,129.539 77.578,129.898 75.672,130.25 74.422,130.469 71.828,132.07 68.234,133.836 67.375,134.258 
	60.813,140.516 60.516,140.813 58.875,142.961 58.578,143.336 55.656,148.953 55.484,149.305 54.672,151.688 54.547,152.039 
	54.203,154.117 53.734,155.641 53.547,156.219 53.172,164.758 53.141,165.391 54.641,172.242 54.719,172.586 56.422,177.125 
	56.734,177.945 58.297,179.828 59.234,181.383 59.453,181.773 63.844,186.844 64.406,187.5 69.938,190.992 70.203,191.164 
	75.609,193.836 76.234,194.148 85.781,196.516 86.906,196.789 90.969,196.43 94.344,196.617 95.188,196.664 105,194.781 
	105.828,194.625 111.688,191.859 112.094,191.672 115.203,189.609 115.609,189.336 120.625,184.695 121.016,184.336 
	122.656,182.109 123.359,181.148 123.938,178.102 125.297,170.688 116.906,171.82 117.844,177.219 111.75,176.336 111.609,177.102 
	111.297,177.523 107.406,181.133 105.453,182.422 101.531,184.273 94.25,185.672 91.234,185.5 90.734,185.477 88,185.711 
	80.984,183.977 76.828,181.922 73.094,179.563 69.891,175.867 68.984,174.359 68.781,174 67.828,172.867 66.688,169.813 
	65.531,164.547 65.828,157.875 66.203,156.664 66.281,156.367 66.625,154.453 67.063,153.172 69.391,148.695 70.188,147.633 
	75.094,142.961 78.125,141.477 78.375,141.336 79.391,140.719 80.438,140.531 80.813,140.461 83.125,139.758 83.453,139.664 
	84.953,139.023 91.094,138.469 95.25,138.82 95.547,138.852 98.078,138.852 98.641,139.031 102.375,140.68 102.859,140.883 
	104.563,141.336 107.094,142.68 109.484,144.656 110.688,145.938 111.063,146.469 111.266,147.266 117.281,146.016 117.281,140.555 
	115.797,140.555 115.797,146.016 120.047,142.047 118.313,140.609 115.734,137.773 115.516,137.539 113.688,135.938 
	113.172,135.484 108.828,133.141 108.406,132.914 105.797,131.961 105.453,131.828 100.891,130.727 100.531,130.641 98.328,130.344 
	96.484,129.867 95.516,129.609 88.578,129.844 88.266,129.852 82.484,130.586 81.984,130.656 79.344,131.406 79.016,131.492 
	77.016,132.281 75.188,132.789 74.359,133.016 71.719,134.539 71.484,134.68 69.781,135.891 68.234,136.703 67.766,136.938 
	65.766,138.438 65.125,138.922 62.141,142.813 60.984,144.008 60.203,144.813 59.266,147.313 57.469,150.742 57.203,151.242 
	56.047,155.602 55.891,156.188 55.781,165.328 55.766,166.023 56.859,169.914 57.047,171.344 57.094,171.734 57.781,174.148 
	57.969,174.82 61.75,180.945 62,181.344 64.906,184.609 65.375,185.125 71.203,189.148 71.531,189.367 74.047,190.672 
	74.484,190.891 83.234,193.844 83.813,194.047 86.547,194.453 87.344,194.563 91.125,194.234 93.281,194.391 93.891,194.438 
	100.438,193.758 101.125,193.688 103.703,192.875 105.625,192.414 106.563,192.188 113.172,188.414 113.953,187.953 
	115.906,185.883 117.047,184.938 117.313,184.727 120.938,180.984 116.25,177.43 117.188,182.828 118.766,182.609 117.844,177.219 
	111.75,176.336 "/>
<polygon fill="#FAFAFA" points="378,191.25 384,191.25 386.266,190.453 386.266,189.25 381.734,188.852 379.109,188.945 
	376.734,188.75 374.359,189.047 369.719,188.852 367.547,189.047 363.016,188.75 359.609,189.047 356.234,187.742 354.969,184.836 
	355.203,170.594 354.969,167.492 355.203,165.484 356.328,163.781 358.375,162.781 362.797,162.68 364.828,162.883 371.859,162.969 
	373.891,162.68 379.328,162.969 382.875,162.367 382.969,161.18 380.828,160.469 378.094,160.664 375.938,160.664 373.781,160.266 
	371.75,160.367 369.25,160.164 366.188,160.563 360.625,160.266 358.234,160.469 355.969,159.359 355.203,157.352 354.844,155.461 
	355.094,153.641 355.094,139.602 355.969,137.797 359.391,136.891 367.328,136.891 369.484,136.602 383.078,136.602 
	385.453,136.391 385.25,135.086 381.734,134.602 371.641,134.797 367.094,134.383 364.828,134.602 362.672,134.383 360.297,134.602 
	355.875,134.5 353.594,135.594 352.469,137.617 352.578,186.945 353.594,189.758 355.875,191.07 362.891,190.938 365.156,191.164 
	367.656,191.164 369.719,190.867 "/>
<polygon fill="#FAFAFA" points="378,191.25 378,196.711 384,196.711 385.172,196.711 388.547,195.531 392.438,194.156 
	392.438,189.25 392.438,184.297 382.344,183.414 381.906,183.375 379.266,183.477 377.313,183.313 376.578,183.25 374.078,183.563 
	370.016,183.398 369.547,183.375 367.453,183.563 363.484,183.305 362.938,183.266 360.609,183.477 358.703,182.742 
	356.234,187.742 361.984,185.773 361.156,183.859 361.375,170.672 361.375,170.453 361.156,167.586 361.203,167.227 
	361.672,166.531 356.328,163.781 359.297,168.563 360.031,168.211 362.531,168.148 364.156,168.305 364.453,168.336 371.781,168.43 
	372.297,168.438 374.188,168.172 378.969,168.422 379.734,168.453 384.031,167.734 388.688,166.953 389.125,161.57 389.453,157.5 
	383,155.352 381.703,154.922 377.844,155.203 376.578,155.203 375.063,154.922 374.25,154.773 371.859,154.891 369.813,154.727 
	369.078,154.672 365.922,155.086 360.984,154.813 360.516,154.789 359.563,154.867 358.969,154.578 355.969,159.359 
	361.813,157.594 361.203,156.016 361.094,155.328 361.219,154.273 361.266,153.977 361.266,140.742 361.641,139.969 
	355.969,137.797 357.766,143.023 360.297,142.352 367.328,142.352 367.781,142.352 369.922,142.063 383.078,142.063 
	383.391,142.063 386.094,141.82 392.469,141.25 391.359,134.32 390.719,130.305 382.672,129.203 382.125,129.133 371.875,129.328 
	367.734,128.953 367.078,128.898 364.844,129.102 363.375,128.961 362.719,128.898 360.063,129.133 356.047,129.039 354.391,129 
	350.656,130.797 348.922,131.617 346.922,135.195 346.297,136.344 346.406,187.797 347.719,191.414 348.391,193.281 
	352.516,195.656 354.109,196.563 362.594,196.406 364.469,196.594 364.797,196.625 367.656,196.625 368.156,196.625 
	370.063,196.352 377.672,196.703 377.844,196.711 378,196.711 378,191.25 378.328,185.797 370.047,185.414 369.359,185.383 
	367.141,185.703 365.516,185.703 363.578,185.516 363.172,185.469 357.641,185.57 356.953,185.172 353.594,189.758 359.484,188.102 
	358.75,186.086 358.641,138.883 359.125,138.008 353.594,135.594 356.531,140.391 357.375,139.992 360.141,140.063 360.531,140.063 
	362.641,139.875 364.141,140.023 364.813,140.094 367.109,139.875 371,140.227 371.375,140.266 381.328,140.063 384.297,140.477 
	385.25,135.086 379.141,135.844 379.344,137.148 385.453,136.391 384.828,130.961 382.781,131.141 369.484,131.141 369.016,131.141 
	366.859,131.43 359.391,131.43 358.469,131.43 354.188,132.57 351.438,133.305 349.438,137.438 348.922,138.469 348.922,153.305 
	348.719,154.828 348.609,155.578 349.109,158.242 349.188,158.688 350.125,161.109 350.891,163.109 355.25,165.242 356.922,166.063 
	360.719,165.742 365.813,166.016 366.438,166.047 369.438,165.664 371.188,165.805 371.641,165.844 373.328,165.758 
	374.672,166.008 375.297,166.125 378.094,166.125 378.359,166.125 379.953,166.008 380.797,166.289 382.969,161.18 376.813,160.781 
	376.719,161.977 382.875,162.367 381.719,157.008 378.938,157.477 374.25,157.227 373.578,157.195 371.406,157.5 365.219,157.43 
	363.469,157.258 363.047,157.219 358.203,157.32 356.703,157.359 353.359,158.992 351.859,159.727 349.859,162.734 349.203,163.742 
	348.828,166.914 348.75,167.391 349.031,170.727 348.781,184.758 348.766,185.82 350.469,189.711 351.391,191.828 357.125,194.047 
	358.609,194.625 363.094,194.234 367.078,194.492 367.625,194.531 369.875,194.32 374.063,194.5 374.656,194.531 376.875,194.242 
	378.531,194.391 378.953,194.422 381.547,194.32 385.656,194.68 386.266,189.25 380.094,189.25 380.094,190.453 386.266,190.453 
	383.984,185.375 382.813,185.789 378,185.789 378,191.25 378.328,185.797 "/>
<polygon fill="#FAFAFA" points="326.453,140.617 326.719,138.906 325.234,138.609 323.641,140.813 311.625,166.383 310.5,168.086 
	305.516,179.023 304.484,180.727 301.984,186.047 300.625,187.141 299.25,186.344 291.219,169.711 290.656,167.984 287.719,162.469 
	287.016,160.469 286.125,158.758 284.984,156.852 278.297,142.32 277.172,140.5 275.672,138.906 274.547,138.992 274.656,140.914 
	296.203,185.438 297.344,187.242 298.25,189.344 299.703,191.164 301.531,191.25 303,189.258 303.906,187.344 304.594,185.336 
	306.641,181.727 308.219,178.023 311.281,172.594 311.953,170.406 312.984,169 314.891,165.086 315.594,162.984 316.734,161.359 "/>
<polygon fill="#FAFAFA" points="326.453,140.617 332.578,141.336 332.844,139.633 333.578,134.688 326.609,133.281 322.375,132.43 
	318.438,137.875 318.141,138.281 306.094,163.938 305.156,165.336 304.938,165.68 299.906,176.719 299.031,178.164 298.906,178.383 
	296.813,182.82 296.469,183.094 300.625,187.141 304.016,182.586 302.641,181.789 299.25,186.344 304.938,184.195 297.031,167.875 
	296.594,166.477 296.438,166.063 293.484,160.5 292.922,158.875 292.797,158.508 291.719,156.445 291.656,156.32 290.594,154.555 
	283.875,139.977 282.578,137.883 282.297,137.414 280.406,135.414 278.359,133.219 274.016,133.555 268.063,134 268.5,141.195 
	268.547,142.172 290.656,187.836 291.734,189.547 292.469,191.281 292.75,191.938 294.672,194.328 296.391,196.477 301.219,196.703 
	304.766,196.867 308.172,192.242 308.484,191.813 309.609,189.43 309.719,189.18 310.344,187.367 312.156,184.164 312.297,183.93 
	313.891,180.227 316.813,175.023 317.063,174.555 317.656,172.656 318.156,171.961 318.453,171.57 320.563,167.258 320.719,166.938 
	321.281,165.227 321.969,164.25 322.234,163.867 332.469,142.039 332.578,141.336 326.453,140.617 320.75,138.523 311.234,158.844 
	310.344,160.094 309.906,160.734 309.078,163.227 307.516,166.422 306.766,167.438 306.25,168.148 305.484,170.648 302.703,175.594 
	302.563,175.836 300.969,179.523 299.078,182.898 298.844,183.313 298.078,185.523 297.516,186.703 296.359,188.273 301.531,191.25 
	301.859,185.797 300.031,185.711 299.703,191.164 304.734,188 303.734,186.758 303.109,185.305 302.953,184.938 301.75,183.031 
	280.766,139.656 280.703,138.711 274.547,138.992 275.078,144.43 276.203,144.344 275.672,138.906 270.906,142.398 272.031,143.578 
	272.719,144.672 279.375,159.164 280.594,161.195 281.234,162.43 281.813,164.063 281.938,164.445 284.844,169.914 285.281,171.227 
	285.375,171.539 294.297,190 297.234,191.703 301.219,194.031 306.141,190.094 307.156,189.273 310.078,183.063 310.953,181.586 
	311.109,181.336 316.047,170.508 316.953,169.133 317.156,168.82 329.141,143.344 330.422,141.547 325.234,138.609 323.875,143.938 
	325.344,144.234 326.719,138.906 320.594,138.18 320.328,139.891 326.453,140.617 320.75,138.523 "/>
<path fill="#FAFAFA" d="M273.063,437.188l-1.141,14.109l-3.484,7.281l-6.672,3.797l-6.578-0.711l-7.078,0.711l-7.406,2.758
	l-3.906,10.039l0.781,9.625l-0.359,13.484l-4.703,6.883l-8.547,3.422l-39.828-0.313l-7.797-3.109l-4.672-6.203l1.172-14.531
	l-1.172-13.109l-3.906-5.492l-6.656-3.453l-33.156-0.711l-7.813,1.039h-39l-8.219-1.039l-7.797,0.711l-8.984-3.797l-3.5-5.859
	l1.953-16.555l4.297-10.367l4.688-5.859l21.859-36.242l5.063-6.219l22.25-35.891l4.672-5.859l3.125-6.227l5.063-5.531l2.344-6.898
	l9-10.68l10.891-19l8.578-11.398l7.047-5.875l13.656-3.086l26.188-1.039l7.766,0.711l10.156-1.055l12.453,4.836l3.109,6.898
	l-0.734,7.266v13.102l1.938,6.906l-1.547,13.781l0.766,7.266l-0.766,54.859l0.766,6.227v14.156l3.094,6.891l7.438,4.156h7.797
	l5.875-0.328l7.391,4.109l3.891,10.023L273.063,437.188z M245.781,438.906l-0.766-3.797l-8.563-1.758l-11.719-0.313l-12.875-2.789
	l-3.453-6.883l-0.422-13.781l0.781-6.57l-0.781-7.25l0.781-59.383l-1.203-6.203l1.578-10.68l-0.734-7.281v-6.227l-0.844-7.219
	l-3.125-6.516l-8.172-3.813l-7.422-0.367l-9.391,3.438l-6.609,6.555l-4.328,5.547L165,310.172l-5.031,6.219l-15.234,23.789
	l-4.688,5.875l-11.281,19.695l-4.297,5.5l-2.359,5.203l-17.172,25.172l-3.141,5.844l-12.109,18.328l-3.469,7.953l1.969,6.211
	l8.141,1.336h23.438l7.016-0.664l61.297,0.664l8.188,3.5l3.891,5.492v20.719L199,477.203l3.453,6.914l4.359-0.344l1.172-6.57
	l1.5-13.094l-1.078-6.242l-0.422-7.258l3.875-6.867l9.016-2.445h12.047L245.781,438.906z M199.75,319.805l-0.75,16.93l1.563,24.875
	L199,368.133l1.156,34.516l0.766,6.555l-0.766,14.859l-4.281,6.555l-8.609,2.734l-14.797-0.313l-9.375,0.313l-7.844-0.313
	l-48.359,0.711l-5.484-3.789l-1.172-5.539l5.063-6.203l3.141-5.898l8.578-11.734l2.344-5.844l8.219-12.086l2.328-5.891
	l12.484-17.914l3.125-6.219l3.922-5.219l11.297-18.922l5.078-5.891l3.891-5.531l2.766-5.531l5.063-6.57l6.609-5.844l11.328,0.359
	l3.922,7.563l1.531,6.57L199.75,319.805z M179.859,346.055l-2.734-1.727l-35.5,58.32l-1.172,6.242l10.891,2.391h12.5l7.438-2.391
	l4.297-7.266l-1.969-5.859l2.734-17.602l-0.766-10.352l0.766-7.586l2.734-6.57L179.859,346.055z"/>
<path fill="#FAFAFA" d="M511.203,336.383l-1.219,110.109l-3.484,12.781l-8.203,12.766l-13.266,15.859l-5.453,5.188l-21.469,10.367
	l-14.438,4.82l-18.344,3.453l-14.844,1.016l-12.875-0.688l-15.922-2.414l-21.156-5.859L352.734,500l-5.453-3.797l-7-3.469
	l-6.297-4.836l-5.047-5.18l-9.734-10.68l-2.766-5.883l-3.859-6.203l-3.938-13.094l-0.359-41.766l-1.172-6.938l1.172-6.898
	l-1.563-6.898l1.922-20.375l-1.531-7.555l0.344-20.375l9.422-26.578l3.063-6.211l3.516-5.516l5.859-4.836l5.125-5.164l11.688-9
	l7.406-3.445l6.25-3.781l7.016-2.414L398,263.234l30.844,1.023l14.828,2.773l8.219,2.406l6.578,2.766l20.719,10.383l6.203,4.805
	l3.547,5.164l5.844,5.516l7.031,10.711l2.719,6.898l3.531,6.539L511.203,336.383z M483.469,397.117l-0.781-5.859l0.406-34.5
	l-1.547-10.039l-0.438-10.336l-3.922-13.094l-3.859-6.898l-8.594-10.695l-12.484-8.648l-7.813-3.82l-7.813-2.734l-14.813-3.102
	l-12.516-0.383L398,287.75l-8.531,1.352l-14.875,4.477l-7.797,3.141l-6.625,3.461l-5.875,5.156l-8.922,11.055l-6.688,13.109
	l-2.719,17.602l1.188,23.453l-0.797,6.57l0.375,13.078l-0.766,7.641l1.516,20.375l-0.328,10l0.766,10.688l6.266,20.367l4.281,5.5
	l5.828,5.531l6.234,4.484l12.484,7.281l23.828,6.195l24.578-0.695l23.016-5.5l7.453-3.484l12.844-8.617l4.719-4.836l7.734-12.414
	l3.156-7.266L483.469,397.117z M474.125,404.383l0.75,6.555l-2.328,27.602l-3.516,12.07l-3.141,5.578l-5.063,5.477l-5.453,4.844
	l-6.641,4.5l-5.844,3.094l-15.266,4.852l-6.203,1.008l-11.297,0.641h-12.516l-14.406-3.398l-6.234-2.031l-8.641-4.164L358.609,462
	l-5.078-5.813l-2.344-5.898l-3.906-6.547l-1.906-15.211l-0.438-31.414l-1.203-6.914l2.391-12.039v-6.914l-1.188-7.266l-0.75-17.266
	l1.563-9.328l5.047-13.422l3.5-6.203l4.688-5.172l17.156-11.391l5.891-3.133l8.188-2.07l18.703-1.352l12.109,0.313l14.047,4.164
	l8.172,1.367l5.484,3.125l6.641,4.156l10.516,10.664l3.563,5.531l4.672,24.156V404.383z M442.891,438.227l1.938-10.719l0.375-10.344
	l-1.125-5.883l0.359-6.898l1.172-6.898l-1.531-6.227l1.531-27.273l-1.531-16.57l-2-10.023l-2.688-6.188l-4.313-5.5l-6.578-4.141
	l-7.469-2.398L397.25,319.5l-12.938,6.203l-5.031,4.836l-3.906,6.539l-1.906,10.023v80.406l3.063,10.719l2.75,6.898l4.719,5.484
	l5.469,3.148l8.141,2.43l11.688,1.023l12.516-1.406l7.031-2.438l5.859-3.406l5.813-5.563L442.891,438.227z"/>
<path fill="#FAFAFA" d="M739.469,484.43l0.766,6.953l-0.766,6.539l-3.109,6.93l-7.781,3.734l-47.219-0.641l-6.266,0.641
	l-99.875-0.641l-8.953,1.023l-14.844-2.773l-1.578-7.602l3.922-8.25l9.359-11.758l5.813-5.211l3.953-6.523l3.922-5.516l5.422-5.531
	l3.109-6.203l5.078-4.805l3.906-6.938l14.438-16.883l3.5-5.875l18.719-22.766l12.531-18.656l6.219-5.203l6.234-8.617l4.688-9.672
	l1.953-6.891l0.406-6.219l-1.172-7.227l-4.672-5.883l-5.453-3.797l-10.547-0.672l-11.313,0.672l-5.859,2.43l-6.281,4.469
	l-2.688,5.859l-4.703,6.227l-7.422,3.125l-38.219-0.367l-7.047-3.797l-3.875-6.203l1.531-6.906l0.422-6.914l9.719-20.023l3.5-5.516
	l16.797-14.477l7-4.164l14.078-5.508l14.859-3.438l18.703-1.055l25.375,2.078l11.297,2.094l6.672,3.055l20.672,11.445l5.828,4.805
	l5.094,5.164l14.453,23.836l3.063,20.688v6.539l-3.063,13.469l-7.031,13.156l-2.391,7.234l-22.594,28.289l-3.516,5.172l-5.859,5.875
	l-18.734,22.094l-4.297,6.547V451l9.344,2.086l49.188,0.281l13.266,2.82l3.094,7.547l0.422,13.813L739.469,484.43z M697.75,485.164
	l10.953-2.797v-3.086l-12.891-2.422l-74.547,0.344l-5.828-2.797l0.75-5.836l5.484-5.867l30.406-41.398l5.484-5.531l23.047-28.984
	l18.703-31.406l1.125-6.547l0.844-6.922l1.5-7.594l-1.906-13.109l-2.766-6.203l-14.391-16.578l-6.672-3.781l-15.203-5.547
	l-7.391-1.352l-31.25,0.695l-7.406,2.422l-13.203,6.18l-5.922,4.156l-4.297,4.789l-4.266,6.227l-0.828,5.875l5.094,1.07l5.875-5.859
	l4.344-5.914l6.563-4.836l7.391-3.07l14.828-4.836h10.578l19.891,2.398l13.25,5.859l5.891,4.484l5.859,6.227l2.672,5.547
	l3.938,12.398v13.82l-1.969,6.555l-5.844,12.414l-51.125,67.32l-3.531,6.188l-14.438,15.898l-3.891,6.195l-5.063,5.516
	l-7.828,10.727l-1.141,5.133l6.25,2.789l48.797,1.352l7.391-1.039L697.75,485.164z"/>
</svg>
